<svg width="464" height="191" viewBox="0 0 464 191" fill="none" xmlns="http://www.w3.org/2000/svg">
<path d="M463.811 48.9902L380.914 189.229H0V0H463.811V48.9902Z" fill="#FFEE2F"/>
<path d="M121.202 130.24C108.077 130.24 99.0771 124.568 96.4521 116.693C96.124 115.662 95.8896 114.537 95.8896 113.412C95.8896 110.365 97.7646 108.396 100.624 108.396C103.015 108.396 104.562 109.474 105.593 112.005C107.702 118.333 113.843 121.287 121.671 121.287C130.249 121.287 136.39 116.88 136.39 110.833C136.39 105.583 132.827 102.302 123.78 100.333L116.374 98.7866C102.874 95.9272 96.7334 89.646 96.7334 79.896C96.7334 68.3179 106.905 60.3491 121.296 60.3491C132.968 60.3491 142.155 65.8335 144.78 74.8804C145.015 75.5366 145.155 76.3335 145.155 77.3179C145.155 80.0366 143.233 81.8179 140.515 81.8179C137.983 81.8179 136.437 80.646 135.358 78.2085C133.062 71.9741 127.905 69.3022 121.155 69.3022C113.233 69.3022 107.374 73.146 107.374 79.3335C107.374 84.2554 110.89 87.5366 119.655 89.4116L127.015 90.9585C141.218 93.9585 147.03 99.6304 147.03 109.474C147.03 122.224 136.999 130.24 121.202 130.24ZM158.187 117.302V87.8179H154.624C151.999 87.8179 150.405 86.3179 150.405 83.8335C150.405 81.3022 151.999 79.8022 154.624 79.8022H158.187V72.4897C158.187 69.2554 160.202 67.0991 163.296 67.0991C166.343 67.0991 168.358 69.2554 168.358 72.4897V79.8022H174.124C176.749 79.8022 178.343 81.3491 178.343 83.8335C178.343 86.3179 176.749 87.8179 174.124 87.8179H168.358V115.052C168.358 118.99 169.718 120.771 173.374 121.052L174.171 121.099C177.077 121.38 178.53 122.552 178.53 124.943C178.53 127.99 176.187 129.537 171.218 129.537H170.702C162.405 129.537 158.187 125.458 158.187 117.302ZM191.468 72.3491C188.233 72.3491 185.608 69.7241 185.608 66.5366C185.608 63.3022 188.233 60.771 191.468 60.771C194.749 60.771 197.374 63.3022 197.374 66.5366C197.374 69.7241 194.749 72.3491 191.468 72.3491ZM191.468 130.005C188.421 130.005 186.405 127.896 186.405 124.662V84.3022C186.405 81.021 188.421 78.9116 191.468 78.9116C194.515 78.9116 196.53 81.021 196.53 84.3022V124.662C196.53 127.896 194.515 130.005 191.468 130.005ZM227.983 130.052C213.874 130.052 204.687 120.255 204.687 104.552C204.687 88.9429 213.827 78.9116 227.89 78.9116C237.405 78.9116 245.562 83.9741 247.718 90.8647C247.999 91.6616 248.187 92.5054 248.187 93.2085C248.187 95.7866 246.358 97.3804 243.874 97.3804C241.718 97.3804 240.499 96.5366 239.28 94.2866C236.749 89.5991 233.28 87.3491 228.077 87.3491C220.155 87.3491 214.999 93.9585 214.999 104.458C214.999 115.193 220.249 121.568 228.077 121.568C233.562 121.568 236.89 119.13 239.28 114.865C240.687 112.427 241.765 111.583 243.968 111.583C246.452 111.583 248.28 113.271 248.28 115.802C248.28 116.599 248.093 117.443 247.718 118.427C245.14 125.224 237.124 130.052 227.983 130.052ZM261.921 130.005C258.968 130.005 256.858 127.99 256.858 124.662V65.9272C256.858 62.5991 258.968 60.5835 261.921 60.5835C264.874 60.5835 266.983 62.5991 266.983 65.9272V100.849H267.077L287.562 80.7866C288.827 79.4272 289.905 78.9116 291.405 78.9116C293.89 78.9116 295.812 80.8335 295.812 83.2241C295.812 84.6772 295.39 85.6147 294.077 86.8335L278.843 101.271L295.577 121.99C296.655 123.349 296.937 124.287 296.937 125.552C296.937 128.13 294.921 130.005 292.202 130.005C290.327 130.005 289.202 129.396 287.843 127.521L271.483 107.271L266.983 111.49V124.662C266.983 127.99 264.874 130.005 261.921 130.005ZM329.843 72.3491C326.608 72.3491 323.983 69.7241 323.983 66.5366C323.983 63.3022 326.608 60.771 329.843 60.771C333.124 60.771 335.749 63.3022 335.749 66.5366C335.749 69.7241 333.124 72.3491 329.843 72.3491ZM329.843 130.005C326.796 130.005 324.78 127.896 324.78 124.662V84.3022C324.78 81.021 326.796 78.9116 329.843 78.9116C332.89 78.9116 334.905 81.021 334.905 84.3022V124.662C334.905 127.896 332.89 130.005 329.843 130.005ZM348.218 117.302V87.8179H344.655C342.03 87.8179 340.437 86.3179 340.437 83.8335C340.437 81.3022 342.03 79.8022 344.655 79.8022H348.218V72.4897C348.218 69.2554 350.233 67.0991 353.327 67.0991C356.374 67.0991 358.39 69.2554 358.39 72.4897V79.8022H364.155C366.78 79.8022 368.374 81.3491 368.374 83.8335C368.374 86.3179 366.78 87.8179 364.155 87.8179H358.39V115.052C358.39 118.99 359.749 120.771 363.405 121.052L364.202 121.099C367.108 121.38 368.562 122.552 368.562 124.943C368.562 127.99 366.218 129.537 361.249 129.537H360.733C352.437 129.537 348.218 125.458 348.218 117.302Z" fill="black"/>
<path d="M463.808 49.0078L380.913 189.232L358.529 48.9658L463.808 49.0078Z" fill="#E3B200"/>
</svg>
