<svg width="338" height="121" viewBox="0 0 338 121" fill="none" xmlns="http://www.w3.org/2000/svg">
<mask id="path-1-inside-1_96_44" fill="white">
<path d="M334.21 5.78125L332.652 12.293L332.257 13.9443L333.31 15.2764L337.242 20.2529L335.326 24.9434L335.162 25.3438L335.102 25.7725L334.161 32.3525L334.007 33.4316L334.493 34.4082L337.462 40.3633L337.582 42.1035V48.3994L337.172 52.2129L337.149 52.416L337.151 52.6211L337.204 58.0449L333.106 63.6914L331.459 65.9609L333.314 68.0625L337.582 72.8965V72.9736L335.504 77.4277L335.463 77.5137L335.428 77.6025L332.784 84.1826L332.167 85.7178L332.962 87.1689L336.193 93.0645L336.509 98.0996L334.241 103.965L333.838 105.008L334.114 106.092L335.473 111.422L332.811 116.845L332.302 117.881L332.509 119.017L332.682 119.962H5.16504L5.33789 119.017L5.54492 117.881L5.03613 116.845L2.37402 111.422L3.73242 106.092L4.00879 105.008L3.60547 103.965L1.33789 98.0996L1.65332 93.0645L4.88477 87.1689L5.67969 85.7178L5.0625 84.1826L2.41895 77.6025L2.38379 77.5137L2.34277 77.4277L0.241211 72.9238L4.53223 68.0625L6.3877 65.9609L4.74023 63.6914L0.642578 58.0449L0.695312 52.6211L0.697266 52.416L0.674805 52.2129L0 45.9395L0.384766 40.3633L3.35352 34.4082L3.83984 33.4316L3.68555 32.3525L2.74512 25.7725L2.68457 25.3438L2.52051 24.9434L0.604492 20.2529L4.53711 15.2764L5.58984 13.9443L5.19434 12.293L3.63672 5.78125L2.51855 0H335.328L334.21 5.78125Z"/>
</mask>
<path d="M334.21 5.78125L332.652 12.293L332.257 13.9443L333.31 15.2764L337.242 20.2529L335.326 24.9434L335.162 25.3438L335.102 25.7725L334.161 32.3525L334.007 33.4316L334.493 34.4082L337.462 40.3633L337.582 42.1035V48.3994L337.172 52.2129L337.149 52.416L337.151 52.6211L337.204 58.0449L333.106 63.6914L331.459 65.9609L333.314 68.0625L337.582 72.8965V72.9736L335.504 77.4277L335.463 77.5137L335.428 77.6025L332.784 84.1826L332.167 85.7178L332.962 87.1689L336.193 93.0645L336.509 98.0996L334.241 103.965L333.838 105.008L334.114 106.092L335.473 111.422L332.811 116.845L332.302 117.881L332.509 119.017L332.682 119.962H5.16504L5.33789 119.017L5.54492 117.881L5.03613 116.845L2.37402 111.422L3.73242 106.092L4.00879 105.008L3.60547 103.965L1.33789 98.0996L1.65332 93.0645L4.88477 87.1689L5.67969 85.7178L5.0625 84.1826L2.41895 77.6025L2.38379 77.5137L2.34277 77.4277L0.241211 72.9238L4.53223 68.0625L6.3877 65.9609L4.74023 63.6914L0.642578 58.0449L0.695312 52.6211L0.697266 52.416L0.674805 52.2129L0 45.9395L0.384766 40.3633L3.35352 34.4082L3.83984 33.4316L3.68555 32.3525L2.74512 25.7725L2.68457 25.3438L2.52051 24.9434L0.604492 20.2529L4.53711 15.2764L5.58984 13.9443L5.19434 12.293L3.63672 5.78125L2.51855 0H335.328L334.21 5.78125Z" fill="#FFDC4E"/>
<path d="M334.21 5.78125L335.183 6.01389L335.188 5.99262L335.192 5.97114L334.21 5.78125ZM332.652 12.293L333.625 12.5259L333.625 12.5256L332.652 12.293ZM332.257 13.9443L331.284 13.7114L331.171 14.1835L331.472 14.5644L332.257 13.9443ZM333.31 15.2764L334.094 14.6564L334.094 14.6563L333.31 15.2764ZM337.242 20.2529L338.168 20.6311L338.389 20.0908L338.027 19.6329L337.242 20.2529ZM335.326 24.9434L336.251 25.3225L336.252 25.3215L335.326 24.9434ZM335.162 25.3438L334.237 24.9646L334.189 25.0802L334.172 25.2039L335.162 25.3438ZM335.102 25.7725L336.091 25.9139L336.092 25.9123L335.102 25.7725ZM334.161 32.3525L335.151 32.4941V32.494L334.161 32.3525ZM334.007 33.4316L333.017 33.2901L332.973 33.5985L333.112 33.8774L334.007 33.4316ZM334.493 34.4082L333.598 34.854L333.598 34.8544L334.493 34.4082ZM337.462 40.3633L338.46 40.2944L338.446 40.0955L338.357 39.9171L337.462 40.3633ZM337.582 42.1035H338.582V42.069L338.58 42.0347L337.582 42.1035ZM337.582 48.3994L338.576 48.5064L338.582 48.453V48.3994H337.582ZM337.172 52.2129L338.166 52.3228L338.166 52.3198L337.172 52.2129ZM337.149 52.416L336.155 52.3061L336.149 52.3656L336.149 52.4255L337.149 52.416ZM337.151 52.6211L336.151 52.6306L336.151 52.6308L337.151 52.6211ZM337.204 58.0449L338.013 58.6323L338.207 58.3652L338.204 58.0352L337.204 58.0449ZM333.106 63.6914L333.916 64.2789L333.916 64.2787L333.106 63.6914ZM331.459 65.9609L330.65 65.3735L330.179 66.022L330.709 66.6228L331.459 65.9609ZM333.314 68.0625L334.064 67.4007L334.064 67.4007L333.314 68.0625ZM337.582 72.8965H338.582V72.5182L338.332 72.2347L337.582 72.8965ZM337.582 72.9736L338.488 73.3964L338.582 73.1954V72.9736H337.582ZM335.504 77.4277L336.406 77.8585L336.41 77.8505L335.504 77.4277ZM335.463 77.5137L334.56 77.0829L334.546 77.1139L334.533 77.1458L335.463 77.5137ZM335.428 77.6025L336.356 77.9753L336.358 77.9704L335.428 77.6025ZM332.784 84.1826L333.712 84.5556L333.712 84.5554L332.784 84.1826ZM332.167 85.7178L331.239 85.3448L331.063 85.7835L331.29 86.1982L332.167 85.7178ZM332.962 87.1689L332.085 87.6494L332.085 87.6496L332.962 87.1689ZM336.193 93.0645L337.191 93.0019L337.177 92.7794L337.07 92.5838L336.193 93.0645ZM336.509 98.0996L337.441 98.4602L337.521 98.2558L337.507 98.0371L336.509 98.0996ZM334.241 103.965L335.174 104.326L335.174 104.325L334.241 103.965ZM333.838 105.008L332.905 104.647L332.79 104.945L332.869 105.255L333.838 105.008ZM334.114 106.092L335.083 105.845L335.083 105.845L334.114 106.092ZM335.473 111.422L336.37 111.863L336.533 111.532L336.442 111.175L335.473 111.422ZM332.811 116.845L333.708 117.285L333.708 117.285L332.811 116.845ZM332.302 117.881L331.404 117.44L331.259 117.736L331.318 118.06L332.302 117.881ZM332.509 119.017L331.525 119.196L331.525 119.196L332.509 119.017ZM332.682 119.962V120.962H333.881L333.665 119.782L332.682 119.962ZM5.16504 119.962L4.18135 119.782L3.96561 120.962H5.16504V119.962ZM5.33789 119.017L6.32158 119.196L6.32168 119.196L5.33789 119.017ZM5.54492 117.881L6.52871 118.06L6.58782 117.736L6.44254 117.44L5.54492 117.881ZM5.03613 116.845L4.13846 117.285L4.13851 117.285L5.03613 116.845ZM2.37402 111.422L1.405 111.175L1.31403 111.532L1.47635 111.863L2.37402 111.422ZM3.73242 106.092L2.76342 105.845L2.7634 105.845L3.73242 106.092ZM4.00879 105.008L4.97779 105.255L5.05674 104.945L4.94148 104.647L4.00879 105.008ZM3.60547 103.965L2.67275 104.325L2.67278 104.326L3.60547 103.965ZM1.33789 98.0996L0.339847 98.0371L0.326145 98.2558L0.405171 98.4602L1.33789 98.0996ZM1.65332 93.0645L0.776409 92.5838L0.66922 92.7794L0.655277 93.0019L1.65332 93.0645ZM4.88477 87.1689L5.76168 87.6496L5.7618 87.6494L4.88477 87.1689ZM5.67969 85.7178L6.55672 86.1982L6.7839 85.7835L6.60751 85.3448L5.67969 85.7178ZM5.0625 84.1826L4.13458 84.5554L4.13468 84.5556L5.0625 84.1826ZM2.41895 77.6025L1.48905 77.9704L1.49103 77.9753L2.41895 77.6025ZM2.38379 77.5137L3.31367 77.1458L3.30105 77.1139L3.28627 77.0829L2.38379 77.5137ZM2.34277 77.4277L1.43654 77.8506L1.44029 77.8585L2.34277 77.4277ZM0.241211 72.9238L-0.508504 72.2621L-0.941948 72.7531L-0.664992 73.3467L0.241211 72.9238ZM4.53223 68.0625L3.78259 67.4007L3.78251 67.4007L4.53223 68.0625ZM6.3877 65.9609L7.13733 66.6228L7.66774 66.022L7.19696 65.3735L6.3877 65.9609ZM4.74023 63.6914L3.93089 64.2787L3.93097 64.2789L4.74023 63.6914ZM0.642578 58.0449L-0.357375 58.0352L-0.360583 58.3652L-0.166763 58.6323L0.642578 58.0449ZM0.695312 52.6211L1.69527 52.6308L1.69527 52.6306L0.695312 52.6211ZM0.697266 52.416L1.69722 52.4255L1.69779 52.3656L1.69121 52.3061L0.697266 52.416ZM0.674805 52.2129L-0.319464 52.3198L-0.319137 52.3228L0.674805 52.2129ZM0 45.9395L-0.997628 45.8706L-1.0037 45.9587L-0.994265 46.0464L0 45.9395ZM0.384766 40.3633L-0.510189 39.9171L-0.599138 40.0956L-0.612862 40.2944L0.384766 40.3633ZM3.35352 34.4082L4.24847 34.8544L4.24866 34.854L3.35352 34.4082ZM3.83984 33.4316L4.73499 33.8774L4.87388 33.5985L4.82978 33.2901L3.83984 33.4316ZM3.68555 32.3525L2.69561 32.494L2.69562 32.4941L3.68555 32.3525ZM2.74512 25.7725L1.75494 25.9123L1.75518 25.9139L2.74512 25.7725ZM2.68457 25.3438L3.67474 25.2039L3.65727 25.0802L3.6099 24.9646L2.68457 25.3438ZM2.52051 24.9434L1.59477 25.3215L1.59518 25.3225L2.52051 24.9434ZM0.604492 20.2529L-0.180103 19.6329L-0.541946 20.0908L-0.321248 20.6311L0.604492 20.2529ZM4.53711 15.2764L3.75255 14.6563L3.75251 14.6564L4.53711 15.2764ZM5.58984 13.9443L6.3744 14.5644L6.67541 14.1835L6.56234 13.7114L5.58984 13.9443ZM5.19434 12.293L4.22177 12.5256L4.22184 12.5259L5.19434 12.293ZM3.63672 5.78125L2.65491 5.97114L2.65907 5.99262L2.66416 6.01389L3.63672 5.78125ZM2.51855 0V-1H1.30661L1.53675 0.189893L2.51855 0ZM335.328 0L336.31 0.189893L336.54 -1H335.328V0ZM334.21 5.78125L333.237 5.54861L331.68 12.0603L332.652 12.293L333.625 12.5256L335.183 6.01389L334.21 5.78125ZM332.652 12.293L331.68 12.0601L331.284 13.7114L332.257 13.9443L333.229 14.1773L333.625 12.5259L332.652 12.293ZM332.257 13.9443L331.472 14.5644L332.525 15.8964L333.31 15.2764L334.094 14.6563L333.041 13.3243L332.257 13.9443ZM333.31 15.2764L332.525 15.8964L336.458 20.8729L337.242 20.2529L338.027 19.6329L334.094 14.6564L333.31 15.2764ZM337.242 20.2529L336.316 19.8748L334.4 24.5652L335.326 24.9434L336.252 25.3215L338.168 20.6311L337.242 20.2529ZM335.326 24.9434L334.401 24.5642L334.237 24.9646L335.162 25.3438L336.087 25.7229L336.251 25.3225L335.326 24.9434ZM335.162 25.3438L334.172 25.2039L334.111 25.6326L335.102 25.7725L336.092 25.9123L336.152 25.4836L335.162 25.3438ZM335.102 25.7725L334.112 25.631L333.171 32.2111L334.161 32.3525L335.151 32.494L336.091 25.9139L335.102 25.7725ZM334.161 32.3525L333.171 32.211L333.017 33.2901L334.007 33.4316L334.997 33.5732L335.151 32.4941L334.161 32.3525ZM334.007 33.4316L333.112 33.8774L333.598 34.854L334.493 34.4082L335.388 33.9624L334.902 32.9859L334.007 33.4316ZM334.493 34.4082L333.598 34.8544L336.567 40.8094L337.462 40.3633L338.357 39.9171L335.388 33.962L334.493 34.4082ZM337.462 40.3633L336.464 40.4321L336.584 42.1724L337.582 42.1035L338.58 42.0347L338.46 40.2944L337.462 40.3633ZM337.582 42.1035H336.582V48.3994H337.582H338.582V42.1035H337.582ZM337.582 48.3994L336.588 48.2925L336.178 52.106L337.172 52.2129L338.166 52.3198L338.576 48.5064L337.582 48.3994ZM337.172 52.2129L336.178 52.103L336.155 52.3061L337.149 52.416L338.143 52.5259L338.166 52.3228L337.172 52.2129ZM337.149 52.416L336.149 52.4255L336.151 52.6306L337.151 52.6211L338.151 52.6116L338.149 52.4065L337.149 52.416ZM337.151 52.6211L336.151 52.6308L336.204 58.0546L337.204 58.0449L338.204 58.0352L338.151 52.6114L337.151 52.6211ZM337.204 58.0449L336.395 57.4576L332.297 63.1041L333.106 63.6914L333.916 64.2787L338.013 58.6323L337.204 58.0449ZM333.106 63.6914L332.297 63.104L330.65 65.3735L331.459 65.9609L332.268 66.5484L333.916 64.2789L333.106 63.6914ZM331.459 65.9609L330.709 66.6228L332.565 68.7243L333.314 68.0625L334.064 67.4007L332.209 65.2991L331.459 65.9609ZM333.314 68.0625L332.565 68.7243L336.832 73.5583L337.582 72.8965L338.332 72.2347L334.064 67.4007L333.314 68.0625ZM337.582 72.8965H336.582V72.9736H337.582H338.582V72.8965H337.582ZM337.582 72.9736L336.676 72.5508L334.598 77.0049L335.504 77.4277L336.41 77.8505L338.488 73.3964L337.582 72.9736ZM335.504 77.4277L334.601 76.997L334.56 77.0829L335.463 77.5137L336.365 77.9444L336.406 77.8585L335.504 77.4277ZM335.463 77.5137L334.533 77.1458L334.498 77.2347L335.428 77.6025L336.358 77.9704L336.393 77.8815L335.463 77.5137ZM335.428 77.6025L334.5 77.2298L331.856 83.8098L332.784 84.1826L333.712 84.5554L336.356 77.9753L335.428 77.6025ZM332.784 84.1826L331.856 83.8096L331.239 85.3448L332.167 85.7178L333.095 86.0908L333.712 84.5556L332.784 84.1826ZM332.167 85.7178L331.29 86.1982L332.085 87.6494L332.962 87.1689L333.839 86.6885L333.044 85.2374L332.167 85.7178ZM332.962 87.1689L332.085 87.6496L335.316 93.5451L336.193 93.0645L337.07 92.5838L333.839 86.6883L332.962 87.1689ZM336.193 93.0645L335.195 93.127L335.511 98.1621L336.509 98.0996L337.507 98.0371L337.191 93.0019L336.193 93.0645ZM336.509 98.0996L335.576 97.739L333.309 103.604L334.241 103.965L335.174 104.325L337.441 98.4602L336.509 98.0996ZM334.241 103.965L333.309 103.604L332.905 104.647L333.838 105.008L334.771 105.368L335.174 104.326L334.241 103.965ZM333.838 105.008L332.869 105.255L333.145 106.339L334.114 106.092L335.083 105.845L334.807 104.761L333.838 105.008ZM334.114 106.092L333.145 106.339L334.504 111.669L335.473 111.422L336.442 111.175L335.083 105.845L334.114 106.092ZM335.473 111.422L334.575 110.981L331.913 116.404L332.811 116.845L333.708 117.285L336.37 111.863L335.473 111.422ZM332.811 116.845L331.913 116.404L331.404 117.44L332.302 117.881L333.199 118.322L333.708 117.285L332.811 116.845ZM332.302 117.881L331.318 118.06L331.525 119.196L332.509 119.017L333.493 118.837L333.286 117.702L332.302 117.881ZM332.509 119.017L331.525 119.196L331.698 120.142L332.682 119.962L333.665 119.782L333.492 118.837L332.509 119.017ZM332.682 119.962V118.962H5.16504V119.962V120.962H332.682V119.962ZM5.16504 119.962L6.14873 120.142L6.32158 119.196L5.33789 119.017L4.3542 118.837L4.18135 119.782L5.16504 119.962ZM5.33789 119.017L6.32168 119.196L6.52871 118.06L5.54492 117.881L4.56113 117.702L4.3541 118.837L5.33789 119.017ZM5.54492 117.881L6.44254 117.44L5.93375 116.404L5.03613 116.845L4.13851 117.285L4.6473 118.322L5.54492 117.881ZM5.03613 116.845L5.9338 116.404L3.27169 110.981L2.37402 111.422L1.47635 111.863L4.13846 117.285L5.03613 116.845ZM2.37402 111.422L3.34305 111.669L4.70145 106.339L3.73242 106.092L2.7634 105.845L1.405 111.175L2.37402 111.422ZM3.73242 106.092L4.70142 106.339L4.97779 105.255L4.00879 105.008L3.03979 104.761L2.76342 105.845L3.73242 106.092ZM4.00879 105.008L4.94148 104.647L4.53816 103.604L3.60547 103.965L2.67278 104.326L3.0761 105.368L4.00879 105.008ZM3.60547 103.965L4.53819 103.604L2.27061 97.739L1.33789 98.0996L0.405171 98.4602L2.67275 104.325L3.60547 103.965ZM1.33789 98.0996L2.33593 98.1621L2.65136 93.127L1.65332 93.0645L0.655277 93.0019L0.339847 98.0371L1.33789 98.0996ZM1.65332 93.0645L2.53023 93.5451L5.76168 87.6496L4.88477 87.1689L4.00785 86.6883L0.776409 92.5838L1.65332 93.0645ZM4.88477 87.1689L5.7618 87.6494L6.55672 86.1982L5.67969 85.7178L4.80265 85.2374L4.00773 86.6885L4.88477 87.1689ZM5.67969 85.7178L6.60751 85.3448L5.99032 83.8096L5.0625 84.1826L4.13468 84.5556L4.75186 86.0908L5.67969 85.7178ZM5.0625 84.1826L5.99042 83.8098L3.34686 77.2298L2.41895 77.6025L1.49103 77.9753L4.13458 84.5554L5.0625 84.1826ZM2.41895 77.6025L3.34882 77.2347L3.31367 77.1458L2.38379 77.5137L1.45391 77.8815L1.48907 77.9704L2.41895 77.6025ZM2.38379 77.5137L3.28627 77.0829L3.24525 76.997L2.34277 77.4277L1.44029 77.8585L1.48131 77.9444L2.38379 77.5137ZM2.34277 77.4277L3.24898 77.0049L1.14741 72.501L0.241211 72.9238L-0.664992 73.3467L1.43657 77.8506L2.34277 77.4277ZM0.241211 72.9238L0.990926 73.5856L5.28194 68.7243L4.53223 68.0625L3.78251 67.4007L-0.508504 72.2621L0.241211 72.9238ZM4.53223 68.0625L5.28186 68.7243L7.13733 66.6228L6.3877 65.9609L5.63806 65.2991L3.78259 67.4007L4.53223 68.0625ZM6.3877 65.9609L7.19696 65.3735L5.5495 63.104L4.74023 63.6914L3.93097 64.2789L5.57843 66.5484L6.3877 65.9609ZM4.74023 63.6914L5.54958 63.1041L1.45192 57.4576L0.642578 58.0449L-0.166763 58.6323L3.93089 64.2787L4.74023 63.6914ZM0.642578 58.0449L1.64253 58.0546L1.69527 52.6308L0.695312 52.6211L-0.30464 52.6114L-0.357375 58.0352L0.642578 58.0449ZM0.695312 52.6211L1.69527 52.6306L1.69722 52.4255L0.697266 52.416L-0.302689 52.4065L-0.304642 52.6116L0.695312 52.6211ZM0.697266 52.416L1.69121 52.3061L1.66875 52.103L0.674805 52.2129L-0.319137 52.3228L-0.296676 52.5259L0.697266 52.416ZM0.674805 52.2129L1.66907 52.1059L0.994265 45.8325L0 45.9395L-0.994265 46.0464L-0.31946 52.3198L0.674805 52.2129ZM0 45.9395L0.997628 46.0083L1.38239 40.4321L0.384766 40.3633L-0.612862 40.2944L-0.997628 45.8706L0 45.9395ZM0.384766 40.3633L1.27972 40.8094L4.24847 34.8544L3.35352 34.4082L2.45856 33.962L-0.510189 39.9171L0.384766 40.3633ZM3.35352 34.4082L4.24866 34.854L4.73499 33.8774L3.83984 33.4316L2.9447 32.9859L2.45837 33.9624L3.35352 34.4082ZM3.83984 33.4316L4.82978 33.2901L4.67548 32.211L3.68555 32.3525L2.69562 32.4941L2.84991 33.5732L3.83984 33.4316ZM3.68555 32.3525L4.67549 32.2111L3.73506 25.631L2.74512 25.7725L1.75518 25.9139L2.69561 32.494L3.68555 32.3525ZM2.74512 25.7725L3.73529 25.6326L3.67474 25.2039L2.68457 25.3438L1.6944 25.4836L1.75494 25.9123L2.74512 25.7725ZM2.68457 25.3438L3.6099 24.9646L3.44584 24.5642L2.52051 24.9434L1.59518 25.3225L1.75924 25.7229L2.68457 25.3438ZM2.52051 24.9434L3.44625 24.5652L1.53023 19.8748L0.604492 20.2529L-0.321248 20.6311L1.59477 25.3215L2.52051 24.9434ZM0.604492 20.2529L1.38909 20.8729L5.3217 15.8964L4.53711 15.2764L3.75251 14.6564L-0.180103 19.6329L0.604492 20.2529ZM4.53711 15.2764L5.32167 15.8964L6.3744 14.5644L5.58984 13.9443L4.80528 13.3243L3.75255 14.6563L4.53711 15.2764ZM5.58984 13.9443L6.56234 13.7114L6.16683 12.0601L5.19434 12.293L4.22184 12.5259L4.61735 14.1773L5.58984 13.9443ZM5.19434 12.293L6.1669 12.0603L4.60928 5.54861L3.63672 5.78125L2.66416 6.01389L4.22177 12.5256L5.19434 12.293ZM3.63672 5.78125L4.61852 5.59136L3.50036 -0.189893L2.51855 0L1.53675 0.189893L2.65491 5.97114L3.63672 5.78125ZM2.51855 0V1H335.328V0V-1H2.51855V0ZM335.328 0L334.346 -0.189893L333.228 5.59136L334.21 5.78125L335.192 5.97114L336.31 0.189893L335.328 0Z" fill="black" mask="url(#path-1-inside-1_96_44)"/>
<path d="M63.0254 98.9814C50.3223 98.9814 41.2754 93.2627 38.7441 85.1064C38.4629 84.1689 38.2754 83.1377 38.2754 82.1533C38.2754 79.4814 39.7754 77.7939 42.166 77.7939C44.2754 77.7939 45.5879 78.8721 46.2441 81.1221C48.3066 88.1064 54.9629 91.3877 63.4941 91.3877C72.6816 91.3877 79.3379 86.5596 79.3379 79.9033C79.3379 74.2314 75.5879 70.4814 66.2129 68.4189L58.7129 66.7783C45.166 63.8252 39.3066 57.6846 39.3066 48.0752C39.3066 36.9189 49.1504 29.0908 63.166 29.0908C74.4629 29.0908 83.5566 34.7627 85.9941 43.9033C86.1348 44.4189 86.2285 45.1221 86.2285 46.0127C86.2285 48.3096 84.6348 49.8096 82.3848 49.8096C80.2285 49.8096 78.916 48.6846 78.166 46.5283C75.8223 39.6846 70.2441 36.6846 62.9316 36.6846C54.4941 36.6846 47.9785 40.8096 47.9785 47.7002C47.9785 53.0439 51.5879 56.7002 60.8223 58.7158L68.3223 60.3564C82.4316 63.4502 88.0098 69.0752 88.0098 78.6377C88.0098 91.1533 78.166 98.9814 63.0254 98.9814ZM99.2129 86.6064V55.8096H95.1348C92.791 55.8096 91.4785 54.5908 91.4785 52.4346C91.4785 50.3252 92.791 49.1064 95.1348 49.1064H99.2129V40.7627C99.2129 38.1846 100.9 36.4033 103.291 36.4033C105.682 36.4033 107.369 38.1846 107.369 40.7627V49.1064H113.65C115.994 49.1064 117.307 50.3252 117.307 52.4346C117.307 54.5908 115.994 55.8096 113.65 55.8096H107.369V84.8252C107.369 88.9502 108.822 90.9189 112.9 91.2002L113.604 91.2471C116.275 91.4346 117.494 92.5127 117.494 94.4346C117.494 96.9189 116.088 98.2314 111.541 98.2314H111.025C103.15 98.2314 99.2129 94.3877 99.2129 86.6064ZM130.057 40.9033C127.291 40.9033 124.994 38.6064 124.994 35.8408C124.994 33.0283 127.291 30.7783 130.057 30.7783C132.869 30.7783 135.166 33.0283 135.166 35.8408C135.166 38.6064 132.869 40.9033 130.057 40.9033ZM130.057 98.7002C127.666 98.7002 125.979 96.9189 125.979 94.3408V52.6221C125.979 50.0439 127.666 48.2627 130.057 48.2627C132.447 48.2627 134.135 50.0439 134.135 52.6221V94.3408C134.135 96.9189 132.447 98.7002 130.057 98.7002ZM165.26 98.7002C151.76 98.7002 142.76 88.9971 142.76 73.5752C142.76 58.2471 151.666 48.2627 165.166 48.2627C174.354 48.2627 182.369 53.4658 184.244 60.2158C184.432 60.8252 184.525 61.4346 184.525 61.9502C184.525 64.1064 183.166 65.5127 181.057 65.5127C179.275 65.5127 178.291 64.7627 177.166 62.6533C174.588 57.8252 170.885 55.4346 165.26 55.4346C156.775 55.4346 151.057 62.5596 151.057 73.4814C151.057 84.6846 156.869 91.5283 165.26 91.5283C171.119 91.5283 174.682 88.9971 177.213 84.3096C178.385 82.1064 179.275 81.4502 181.057 81.4502C183.166 81.4502 184.572 82.9033 184.572 85.0127C184.572 85.6221 184.432 86.3252 184.197 87.0752C181.854 93.8252 174.119 98.7002 165.26 98.7002ZM197.744 98.7002C195.354 98.7002 193.666 96.9189 193.666 94.3408V33.7314C193.666 31.1533 195.354 29.3721 197.744 29.3721C200.135 29.3721 201.822 31.1533 201.822 33.7314V70.7627L223.619 49.6221C224.604 48.6377 225.4 48.2627 226.572 48.2627C228.494 48.2627 230.041 49.8096 230.041 51.6377C230.041 52.7627 229.713 53.4658 228.729 54.4033L212.135 70.1533L230.463 92.4658C231.26 93.4502 231.494 94.2002 231.494 95.2314C231.494 97.2002 229.854 98.7002 227.744 98.7002C226.479 98.7002 225.635 98.3252 224.697 97.2002L206.369 75.1689L201.822 79.4814V94.3408C201.822 96.9189 200.135 98.7002 197.744 98.7002ZM264.025 40.9033C261.26 40.9033 258.963 38.6064 258.963 35.8408C258.963 33.0283 261.26 30.7783 264.025 30.7783C266.838 30.7783 269.135 33.0283 269.135 35.8408C269.135 38.6064 266.838 40.9033 264.025 40.9033ZM264.025 98.7002C261.635 98.7002 259.947 96.9189 259.947 94.3408V52.6221C259.947 50.0439 261.635 48.2627 264.025 48.2627C266.416 48.2627 268.104 50.0439 268.104 52.6221V94.3408C268.104 96.9189 266.416 98.7002 264.025 98.7002ZM281.744 86.6064V55.8096H277.666C275.322 55.8096 274.01 54.5908 274.01 52.4346C274.01 50.3252 275.322 49.1064 277.666 49.1064H281.744V40.7627C281.744 38.1846 283.432 36.4033 285.822 36.4033C288.213 36.4033 289.9 38.1846 289.9 40.7627V49.1064L296.182 49.1064C298.525 49.1064 299.838 50.3252 299.838 52.4346C299.838 54.5908 298.525 55.8096 296.182 55.8096L289.9 55.8096V84.8252C289.9 88.9502 291.354 90.9189 295.432 91.2002L296.135 91.2471C298.807 91.4346 300.025 92.5127 300.025 94.4346C300.025 96.9189 298.619 98.2314 294.072 98.2314H293.557C285.682 98.2314 281.744 94.3877 281.744 86.6064Z" fill="black"/>
</svg>
